<?xml version="1.0" encoding="UTF-8" standalone="no"?>
<!-- Created with Inkscape (http://www.inkscape.org/) -->

<svg
   width="87.254105mm"
   height="48.312447mm"
   viewBox="0 0 87.254107 48.312447"
   version="1.1"
   id="svg5"
   sodipodi:docname="innovating-without-patents.svg"
   inkscape:version="1.1 (c4e8f9ed74, 2021-05-24)"
   xmlns:inkscape="http://www.inkscape.org/namespaces/inkscape"
   xmlns:sodipodi="http://sodipodi.sourceforge.net/DTD/sodipodi-0.dtd"
   xmlns="http://www.w3.org/2000/svg"
   xmlns:svg="http://www.w3.org/2000/svg">
  <sodipodi:namedview
     id="namedview7"
     pagecolor="#505050"
     bordercolor="#eeeeee"
     borderopacity="1"
     inkscape:pageshadow="0"
     inkscape:pageopacity="0"
     inkscape:pagecheckerboard="0"
     inkscape:document-units="mm"
     showgrid="false"
     inkscape:zoom="1.4142137"
     inkscape:cx="151.32084"
     inkscape:cy="115.9655"
     inkscape:window-width="1896"
     inkscape:window-height="1022"
     inkscape:window-x="12"
     inkscape:window-y="46"
     inkscape:window-maximized="1"
     inkscape:current-layer="layer2"
     fit-margin-top="0"
     fit-margin-left="0"
     fit-margin-right="0"
     fit-margin-bottom="0" />
  <defs
     id="defs2">
    <rect
       x="191.32269"
       y="365.74887"
       width="510.36838"
       height="134.81786"
       id="rect2166" />
    <rect
       x="191.32269"
       y="365.74887"
       width="391.68967"
       height="53.522091"
       id="rect2166-3" />
    <rect
       x="191.32269"
       y="365.74887"
       width="391.68967"
       height="53.522091"
       id="rect2166-3-7" />
  </defs>
  <g
     inkscape:groupmode="layer"
     id="layer4"
     inkscape:label="Layer 4"
     transform="translate(-100.48307,95.14753)">
    <path
       style="color:#000000;fill:#607b7d;stroke-width:0.275947;-inkscape-stroke:none"
       d="m 100.48307,46.835083 h 87.2541 V 95.14753 h -87.2541 z"
       id="rect20832-3-6"
       transform="scale(1,-1)" />
  </g>
  <g
     inkscape:groupmode="layer"
     id="layer3"
     inkscape:label="Layer 3"
     transform="translate(-100.48307,95.14753)">
    <path
       style="color:#000000;fill:#f2f1e5;stroke-width:0.265988;-inkscape-stroke:none"
       d="m 101.64681,-94.04763 h 84.9397 v 46.111725 h -84.9397 z"
       id="rect20832-3" />
  </g>
  <g
     inkscape:label="Layer 1"
     inkscape:groupmode="layer"
     id="layer1"
     transform="translate(-100.48307,95.14753)">
    <path
       style="color:#000000;fill:#607b7d;stroke-width:0.228452;-inkscape-stroke:none"
       d="m 107.02507,-90.490356 h 74.07896 v 39.002307 h -74.07896 z"
       id="rect20832" />
    <path
       style="color:#000000;fill:#f2f1e5;stroke-width:0.310479;-inkscape-stroke:none"
       d="m 186.52137,-64.870264 a 9.6769312,9.5426336 0 0 1 -9.67693,9.542634 9.6769312,9.5426336 0 0 1 -9.67693,-9.542634 9.6769312,9.5426336 0 0 1 9.67693,-9.542633 9.6769312,9.5426336 0 0 1 9.67693,9.542633 z"
       id="path23523" />
  </g>
  <g
     inkscape:groupmode="layer"
     id="layer2"
     inkscape:label="Layer 2"
     transform="translate(-100.48307,95.14753)">
    <g
       aria-label="INNOVATING"
       transform="matrix(0.18850206,0,0,0.18850206,74.063756,-155.43165)"
       id="text2164"
       style="font-size:40px;white-space:pre;fill:#f2f1e5">
      <path
         style="color:#000000;-inkscape-font-specification:Pixeled;-inkscape-stroke:none"
         d="M 191.32227,410.74805 V 362.75 h 7.99804 v 47.99805 z"
         id="path864" />
      <path
         style="color:#000000;-inkscape-font-specification:Pixeled;-inkscape-stroke:none"
         d="M 207.31836,410.74805 V 362.75 h 7.99805 v 7.99805 h 7.99804 v 8.00781 h -7.99804 v 31.99219 z m 23.99414,0 v -23.99414 h -7.99805 v -7.99805 h 7.99805 V 362.75 h 7.99805 v 47.99805 z"
         id="path866" />
      <path
         style="color:#000000;-inkscape-font-specification:Pixeled;-inkscape-stroke:none"
         d="M 247.31836,410.74805 V 362.75 h 7.99805 v 7.99805 h 7.99804 v 8.00781 h -7.99804 v 31.99219 z m 23.99414,0 v -23.99414 h -7.99805 v -7.99805 h 7.99805 V 362.75 h 7.99805 v 47.99805 z"
         id="path868" />
      <path
         style="color:#000000;-inkscape-font-specification:Pixeled;-inkscape-stroke:none"
         d="M 295.31641,410.74805 V 402.75 h 15.99609 v 7.99805 z M 287.31836,402.75 v -32.00195 h 7.99805 V 402.75 Z m 23.99414,0 v -32.00195 h 7.99805 V 402.75 Z M 295.31641,370.74805 V 362.75 h 15.99609 v 7.99805 z"
         id="path870" />
      <path
         style="color:#000000;-inkscape-font-specification:Pixeled;-inkscape-stroke:none"
         d="M 343.31445,410.74805 V 402.75 h 7.99805 v 7.99805 z M 335.31641,402.75 v -7.99805 h 7.99804 V 402.75 Z m 15.99609,0 v -7.99805 h 7.99805 V 402.75 Z m -23.99414,-7.99805 V 362.75 h 7.99805 v 32.00195 z m 31.99219,0 V 362.75 h 8.00781 v 32.00195 z"
         id="path872" />
      <path
         style="color:#000000;-inkscape-font-specification:Pixeled;-inkscape-stroke:none"
         d="m 375.31641,410.74805 v -40 h 7.99804 v 16.00586 h 15.9961 v -16.00586 h 7.99804 v 40 h -7.99804 v -15.9961 h -15.9961 v 15.9961 z m 7.99804,-40 V 362.75 h 15.9961 v 7.99805 z"
         id="path874" />
      <path
         style="color:#000000;-inkscape-font-specification:Pixeled;-inkscape-stroke:none"
         d="m 431.3125,410.74805 v -40 H 415.31641 V 362.75 h 40 v 7.99805 h -16.00586 v 40 z"
         id="path876" />
      <path
         style="color:#000000;-inkscape-font-specification:Pixeled;-inkscape-stroke:none"
         d="M 463.31445,410.74805 V 362.75 h 7.99805 v 47.99805 z"
         id="path878" />
      <path
         style="color:#000000;-inkscape-font-specification:Pixeled;-inkscape-stroke:none"
         d="M 479.31055,410.74805 V 362.75 h 7.99804 v 7.99805 h 7.99805 v 8.00781 h -7.99805 v 31.99219 z m 23.99414,0 v -23.99414 h -7.99805 v -7.99805 h 7.99805 V 362.75 h 7.99804 v 47.99805 z"
         id="path880" />
      <path
         style="color:#000000;-inkscape-font-specification:Pixeled;-inkscape-stroke:none"
         d="M 527.30859,410.74805 V 402.75 h 15.9961 v 7.99805 z m 15.9961,-7.99805 v -15.99609 h -7.99805 v -7.99805 h 15.99609 V 402.75 Z m -23.99414,0 v -32.00195 h 7.99804 V 402.75 Z m 7.99804,-32.00195 V 362.75 h 23.99414 v 7.99805 z"
         id="path882" />
    </g>
    <g
       aria-label="WITHOUT"
       transform="matrix(0.18850206,0,0,0.18850206,74.064368,-143.73768)"
       id="text2164-6"
       style="font-size:40px;white-space:pre;fill:#f2f1e5">
      <path
         style="color:#000000;-inkscape-font-specification:Pixeled;-inkscape-stroke:none"
         d="M 199.32031,410.74805 V 402.75 h 7.99805 v 7.99805 z m 15.9961,0 V 402.75 h 7.99804 v 7.99805 z M 207.31836,402.75 v -15.99609 h 7.99805 V 402.75 Z m -15.99609,0 v -40 h 7.99804 v 40 z m 31.99218,0 v -40 h 8.00782 v 40 z"
         id="path885" />
      <path
         style="color:#000000;-inkscape-font-specification:Pixeled;-inkscape-stroke:none"
         d="M 239.32031,410.74805 V 362.75 h 7.99805 v 47.99805 z"
         id="path887" />
      <path
         style="color:#000000;-inkscape-font-specification:Pixeled;-inkscape-stroke:none"
         d="m 271.3125,410.74805 v -40 H 255.31641 V 362.75 h 40 v 7.99805 h -16.00586 v 40 z"
         id="path889" />
      <path
         style="color:#000000;-inkscape-font-specification:Pixeled;-inkscape-stroke:none"
         d="M 303.31445,410.74805 V 362.75 h 7.99805 v 16.00586 h 15.99609 V 362.75 h 7.99805 v 47.99805 h -7.99805 V 386.75391 H 311.3125 v 23.99414 z"
         id="path891" />
      <path
         style="color:#000000;-inkscape-font-specification:Pixeled;-inkscape-stroke:none"
         d="M 351.3125,410.74805 V 402.75 h 15.99609 v 7.99805 z M 343.31445,402.75 v -32.00195 h 7.99805 V 402.75 Z m 23.99414,0 v -32.00195 h 7.99805 V 402.75 Z M 351.3125,370.74805 V 362.75 h 15.99609 v 7.99805 z"
         id="path893" />
      <path
         style="color:#000000;-inkscape-font-specification:Pixeled;-inkscape-stroke:none"
         d="M 391.3125,410.74805 V 402.75 h 15.99609 v 7.99805 z M 383.31445,402.75 v -40 h 7.99805 v 40 z m 23.99414,0 v -40 h 7.99805 v 40 z"
         id="path895" />
      <path
         style="color:#000000;-inkscape-font-specification:Pixeled;-inkscape-stroke:none"
         d="m 439.31055,410.74805 v -40 h -15.9961 V 362.75 h 40 v 7.99805 h -16.00586 v 40 z"
         id="path897" />
    </g>
    <g
       aria-label="PATENTS"
       transform="matrix(0.18850206,0,0,0.18850206,74.061428,-132.097)"
       id="text2164-6-5"
       style="font-size:40px;white-space:pre;fill:#f2f1e5">
      <path
         style="color:#000000;-inkscape-font-specification:Pixeled;-inkscape-stroke:none"
         d="m 215.31641,378.75586 v -8.00781 h -15.9961 v 8.00781 z m -23.99414,31.99219 V 362.75 h 31.99218 v 24.00391 h -23.99414 v 23.99414 z"
         id="path900" />
      <path
         style="color:#000000;-inkscape-font-specification:Pixeled;-inkscape-stroke:none"
         d="m 231.32227,410.74805 v -40 h 7.99804 v 16.00586 h 15.9961 v -16.00586 h 7.99804 v 40 h -7.99804 v -15.9961 h -15.9961 v 15.9961 z m 7.99804,-40 V 362.75 h 15.9961 v 7.99805 z"
         id="path902" />
      <path
         style="color:#000000;-inkscape-font-specification:Pixeled;-inkscape-stroke:none"
         d="m 287.31836,410.74805 v -40 H 271.32227 V 362.75 h 40 v 7.99805 h -16.00586 v 40 z"
         id="path904" />
      <path
         style="color:#000000;-inkscape-font-specification:Pixeled;-inkscape-stroke:none"
         d="M 319.32031,410.74805 V 362.75 h 31.99219 v 7.99805 h -23.99414 v 8.00781 h 23.99414 v 7.99805 H 327.31836 V 402.75 h 23.99414 v 7.99805 z"
         id="path906" />
      <path
         style="color:#000000;-inkscape-font-specification:Pixeled;-inkscape-stroke:none"
         d="M 359.32031,410.74805 V 362.75 h 7.99805 v 7.99805 h 7.99805 v 8.00781 h -7.99805 v 31.99219 z m 23.99414,0 v -23.99414 h -7.99804 v -7.99805 h 7.99804 V 362.75 h 7.99805 v 47.99805 z"
         id="path908" />
      <path
         style="color:#000000;-inkscape-font-specification:Pixeled;-inkscape-stroke:none"
         d="m 415.31641,410.74805 v -40 h -15.9961 V 362.75 h 40 v 7.99805 h -16.00586 v 40 z"
         id="path910" />
      <path
         style="color:#000000;-inkscape-font-specification:Pixeled;-inkscape-stroke:none"
         d="M 447.31836,410.74805 V 402.75 H 471.3125 V 386.75391 H 447.31836 V 362.75 h 31.99219 v 7.99805 h -23.99414 v 8.00781 h 23.99414 v 31.99219 z"
         id="path912" />
    </g>
    <g
       style="fill:#607b7d"
       id="g23401"
       transform="matrix(0.93743899,0,0,0.92442891,169.31156,-71.716356)">
      <path
         style="color:#000000;fill-rule:evenodd;-inkscape-stroke:none"
         d="m 6,10 -3.5,-3.5 -2,2 5.5,5.5 9.5,-9.5 -2,-2 z"
         id="path23385" />
    </g>
  </g>
</svg>
